<svg width="120" height="26" viewBox="0 0 120 26" fill="none" xmlns="http://www.w3.org/2000/svg">
<path d="M37.0861 14.3668C37.0861 14.0466 36.9625 13.798 36.7105 13.6163C36.4585 13.4347 36.0543 13.3056 35.4885 13.2292L34.0003 12.9997C32.8401 12.8228 32.008 12.536 31.4992 12.1297C30.9905 11.7282 30.7385 11.1594 30.7385 10.4232C30.7385 9.63931 31.0951 9.03224 31.8035 8.59726C32.512 8.16227 33.4915 7.94238 34.742 7.94238C35.8879 7.94238 36.7723 8.13359 37.3999 8.51121C38.0275 8.88884 38.4412 9.49113 38.6409 10.3133L36.9625 10.5284C36.7866 10.0886 36.5298 9.77794 36.1827 9.58673C35.8356 9.40031 35.3459 9.30471 34.7135 9.30471C34.005 9.30471 33.4582 9.39553 33.0731 9.58195C32.6879 9.7636 32.493 10.0313 32.493 10.3707C32.493 10.6909 32.6119 10.9299 32.8544 11.0972C33.0968 11.2598 33.5248 11.3888 34.1334 11.4844L35.8594 11.7473C36.9007 11.9003 37.6567 12.1823 38.1369 12.5982C38.6124 13.0141 38.8501 13.5877 38.8501 14.3238C38.8501 15.1555 38.503 15.7961 37.8136 16.2454C37.1241 16.6947 36.1351 16.9242 34.8466 16.9242C32.1554 16.9242 30.71 15.9825 30.5103 14.0991H32.2838C32.3789 14.5963 32.6356 14.9595 33.0588 15.2033C33.482 15.4423 34.0763 15.5618 34.8466 15.5618C35.5788 15.5618 36.1351 15.4567 36.5155 15.2511C36.8959 15.0456 37.0861 14.7492 37.0861 14.3668Z" fill="black"/>
<path d="M47.2613 9.64383H43.8901V8.15723H52.3869V9.64383H49.0253V16.7136H47.2613V9.64383Z" fill="black"/>
<path d="M58.2827 8.16211H65.3388V9.55312H60.023V11.6372H65.0773V13.0282H60.023V15.3275H65.6003L65.3863 16.7185H58.2827V8.16689V8.16211Z" fill="black"/>
<path d="M72.7801 16.7137H70.959L74.8912 8.16211H76.8549L80.7966 16.7137H78.9137L78.0103 14.6917H73.6597L72.7801 16.7137ZM75.8516 9.66784L74.2445 13.3103H77.4492L75.8516 9.66784Z" fill="black"/>
<path d="M86.6924 8.16211H88.4564V15.2319H93.7247L93.4965 16.7185H86.6924V8.16689V8.16211Z" fill="black"/>
<path d="M100.895 9.64383H97.5239V8.15723H106.021V9.64383H102.659V16.7136H100.895V9.64383Z" fill="black"/>
<path d="M118.236 13.0713H113.41V16.7137H111.646V8.16211H113.41V11.5177H118.236V8.16211H120V16.7137H118.236V13.0713Z" fill="black"/>
<path d="M7.99664 8.97995L10.2361 7.60806C11.2346 7.04401 12.2284 7.41686 12.9273 7.87097C12.9273 7.87097 16.6218 10.1319 16.6693 10.1511C17.2399 10.3949 17.782 10.2801 18.1956 10.0363C19.061 9.53444 20.2307 8.68358 20.1641 8.64534C18.324 7.51246 13.5169 4.58227 13.0652 4.30502C12.6563 4.05646 11.2822 3.45895 9.81771 4.41018C9.27091 4.76391 0.441305 10.1989 0.0228856 10.457C0.0181309 10.457 0.00862099 10.457 0.00862099 10.4474C0.00862099 10.3757 -0.000888547 10.0841 0.00862099 9.7352C0.122735 6.566 -0.238627 6.4704 1.23535 5.48092C2.98986 4.30502 8.5054 1.04501 9.22337 0.605237C10.7496 -0.283859 12.6896 -0.130896 13.8688 0.657818C15.2857 1.53257 20.0738 4.54403 21.7474 5.58608C22.2514 5.89679 22.5462 6.38914 22.551 7.02011C22.5605 8.31073 22.551 9.60136 22.5367 10.8968C22.532 11.5564 22.1896 12.0201 21.6761 12.3356C20.554 13.0287 19.4271 13.717 18.2907 14.3767C17.7392 14.6969 17.4396 14.7352 16.6408 14.2811C15.4331 13.5401 9.95085 10.1797 8.4103 9.23807C8.29143 9.16637 8.16781 9.09467 7.99188 8.99429C7.98237 8.99429 7.98237 8.97995 7.99188 8.97517L7.99664 8.97995Z" fill="url(#paint0_linear_502_12536)"/>
<path d="M14.5631 17.0196L12.3236 18.3915C11.3251 18.9555 10.3313 18.5827 9.63237 18.1286C9.63237 18.1286 5.93791 15.8676 5.89036 15.8485C5.31979 15.6047 4.77775 15.7194 4.36408 15.9632C3.49871 16.4651 2.32904 17.316 2.39561 17.3542C4.2357 18.4871 9.07606 21.4412 9.49448 21.6945C9.90339 21.9431 11.2775 22.5406 12.742 21.5893C13.2888 21.2356 22.1184 15.8007 22.5368 15.5425C22.5416 15.5425 22.5511 15.5425 22.5511 15.5521C22.5511 15.6238 22.5606 15.9154 22.5511 16.2643C22.437 19.4335 22.7983 19.5291 21.3244 20.5186C19.5698 21.6945 14.0543 24.9545 13.3363 25.3943C11.8101 26.2834 9.87011 26.1304 8.69092 25.3417C7.274 24.467 2.48595 21.4555 0.812267 20.4134C0.308261 20.1027 0.0134654 19.6104 0.00871063 18.9794C-0.000798909 17.6888 0.00871096 16.3982 0.0229753 15.1028C0.02773 14.4431 0.370073 13.9795 0.883589 13.664C2.00571 12.9709 3.1326 12.2825 4.26899 11.6229C4.82054 11.3026 5.12009 11.2644 5.91889 11.7185C7.1266 12.4594 12.6089 15.8198 14.1494 16.7615C14.2683 16.8332 14.3919 16.9049 14.5678 17.0052C14.5773 17.0052 14.5773 17.0196 14.5678 17.0244L14.5631 17.0196Z" fill="url(#paint1_linear_502_12536)"/>
<path d="M7.99639 8.97969L10.2359 7.60781C11.2344 7.04376 12.2281 7.4166 12.9271 7.87071C12.9271 7.87071 16.6215 10.1317 16.6691 10.1508C17.2397 10.3946 17.7817 10.2799 18.1954 10.0361C19.037 9.54852 20.1591 8.74069 20.1686 8.64509C20.1686 8.64509 23.0262 6.64223 21.7519 5.58105C22.2559 5.89176 22.5507 6.38411 22.5555 7.01508C22.565 8.3057 22.5555 9.59632 22.5412 10.8917C22.5365 11.5514 22.1941 12.015 21.6806 12.3305C20.5585 13.0236 19.4316 13.712 18.2952 14.3716C17.7437 14.6919 17.4441 14.7301 16.6453 14.276C15.4376 13.5351 9.95535 10.1747 8.41481 9.23304C8.29594 9.16134 8.17232 9.08964 7.99639 8.98925C7.98688 8.98925 7.98688 8.97491 7.99639 8.97013V8.97969Z" fill="black"/>
<path d="M14.5629 17.0197L12.3234 18.3916C11.3249 18.9556 10.3312 18.5828 9.63224 18.1287C9.63224 18.1287 5.93778 15.8677 5.89023 15.8486C5.31966 15.6048 4.77762 15.7195 4.36395 15.9633C3.52236 16.4509 2.40023 17.2587 2.39072 17.3543C2.39072 17.3543 -0.466894 19.3571 0.807384 20.4183C0.303379 20.1076 0.00858259 19.6153 0.00382782 18.9843C-0.00568172 17.6937 0.00382815 16.4031 0.0180925 15.1077C0.0228472 14.448 0.36519 13.9843 0.878706 13.6689C2.00083 12.9757 3.12771 12.2874 4.2641 11.6278C4.81566 11.3075 5.11521 11.2692 5.91401 11.7234C7.12172 12.4643 12.604 15.8247 14.1445 16.7663C14.2634 16.838 14.387 16.9097 14.5629 17.0101C14.5724 17.0101 14.5724 17.0245 14.5629 17.0293V17.0197Z" fill="black"/>
<defs>
<linearGradient id="paint0_linear_502_12536" x1="0.00386622" y1="7.31648" x2="22.5557" y2="7.31648" gradientUnits="userSpaceOnUse">
<stop/>
<stop offset="0.85" stop-opacity="0.7"/>
<stop offset="1" stop-opacity="0.4"/>
</linearGradient>
<linearGradient id="paint1_linear_502_12536" x1="23.0503" y1="18.6831" x2="0.498453" y2="18.6831" gradientUnits="userSpaceOnUse">
<stop/>
<stop offset="0.85" stop-opacity="0.7"/>
<stop offset="1" stop-opacity="0.4"/>
</linearGradient>
</defs>
</svg>
